# xmcd
#
# Track frame offsets: 
#        150
#        14907
#        32205
#        54352
#        73200
#        86285
#        106000
#        131615
#        153612
#        176612
#        198512
#        220400
#        237407
#
# Disc length: 3412 seconds
#
# Revision: 1
# Processed by: cddbd v1.5.2PL0 Copyright (c) Steve Scherf et al.
# Submitted via: ExactAudioCopy v0.99pb3
#
DISCID=ba0d520d
DTITLE=Tommy Dorsey - Sentimental Swing
DYEAR=1999
DGENRE=Jazz
TTITLE0=Opus One
TTITLE1=Marie
TTITLE2=Polkadots and Moonbeams
TTITLE3=I Am Getting Sentimental Over You
TTITLE4=Song Of India
TTITLE5=Stomp It Off
TTITLE6=Smoke Gets In Your Eyes
TTITLE7=Night and Day
TTITLE8=Stardust
TTITLE9=Boogie Woogie
TTITLE10=Everything Happens To Me
TTITLE11=I'll Never Smile Again
TTITLE12=I'll Be Seeing You
EXTD=
EXTT0=
EXTT1=
EXTT2=
EXTT3=
EXTT4=
EXTT5=
EXTT6=
EXTT7=
EXTT8=
EXTT9=
EXTT10=
EXTT11=
EXTT12=
PLAYORDER=
